<?xml version="1.0" standalone="no"?>
<!DOCTYPE svg PUBLIC "-//W3C//DTD SVG 20010904//EN"
 "http://www.w3.org/TR/2001/REC-SVG-20010904/DTD/svg10.dtd">
<svg version="1.0" xmlns="http://www.w3.org/2000/svg"
 width="577.000000pt" height="433.000000pt" viewBox="0 0 577.000000 433.000000"
 preserveAspectRatio="xMidYMid meet">

<g transform="translate(0.000000,433.000000) scale(0.100000,-0.100000)"
fill="#000000" stroke="none">
<path d="M2950 2840 c0 -323 0 -330 20 -330 20 0 20 7 20 305 l0 305 960 0
960 0 0 -955 0 -955 -960 0 -960 0 0 305 c0 298 0 305 -20 305 -20 0 -20 -7
-20 -330 l0 -330 1000 0 1000 0 0 1005 0 1005 -1000 0 -1000 0 0 -330z"/>
<path d="M3462 2228 c2 -158 6 -212 16 -216 9 -3 12 44 12 212 0 187 -2 216
-15 216 -13 0 -15 -28 -13 -212z"/>
<path d="M1635 2224 c-44 -108 -79 -199 -78 -203 7 -22 24 -3 44 49 l24 60
100 0 100 0 23 -60 c14 -34 30 -60 38 -60 8 0 14 2 14 6 0 4 -100 252 -157
392 -14 33 -35 -3 -108 -184z m135 36 c22 -52 40 -95 40 -97 0 -2 -39 -3 -86
-3 -65 0 -85 3 -81 13 3 6 20 48 37 91 34 87 40 99 46 93 2 -2 22 -46 44 -97z"/>
<path d="M1980 2215 l0 -205 106 0 c74 0 116 5 137 15 98 47 126 233 51 332
-40 53 -70 63 -189 63 l-105 0 0 -205z m233 156 c39 -25 55 -50 67 -106 14
-65 -2 -141 -39 -186 l-29 -34 -101 -3 -101 -4 0 176 0 176 88 0 c68 0 93 -4
115 -19z"/>
<path d="M2410 2215 c0 -176 2 -205 15 -205 13 0 15 29 15 205 0 176 -2 205
-15 205 -13 0 -15 -29 -15 -205z"/>
<path d="M2527 2414 c-15 -16 8 -24 68 -24 l65 0 2 -187 c2 -138 6 -187 16
-191 9 -3 12 39 12 187 l0 190 73 3 c41 2 71 7 70 13 -3 11 -295 20 -306 9z"/>
<path d="M3080 2214 l0 -206 120 4 c114 3 121 4 146 29 18 18 28 41 31 73 5
42 3 48 -31 82 -30 30 -35 39 -22 46 21 12 39 73 31 108 -12 57 -44 70 -166
70 l-109 0 0 -206z m225 156 c11 -12 19 -36 19 -55 0 -61 -24 -75 -126 -75
l-88 0 0 68 c0 38 3 72 7 75 3 4 43 7 88 7 70 0 85 -3 100 -20z m-10 -174 c42
-18 59 -48 51 -92 -10 -52 -36 -64 -143 -64 l-93 0 0 78 c0 43 3 82 7 85 12
13 143 7 178 -7z"/>
<path d="M3620 2272 c-29 -29 -40 -49 -45 -84 -24 -158 151 -250 254 -133 37
42 48 93 31 148 -22 75 -68 107 -151 107 -46 0 -55 -4 -89 -38z m143 4 c117
-48 83 -246 -42 -246 -127 0 -165 195 -48 245 41 18 50 18 90 1z"/>
<path d="M3992 2290 c-40 -25 -62 -73 -62 -137 0 -114 103 -183 198 -134 23
12 42 26 42 31 0 6 5 10 11 10 24 0 0 -84 -32 -113 -28 -26 -37 -28 -88 -25
-31 2 -64 8 -73 12 -13 6 -18 4 -18 -7 0 -22 63 -40 120 -35 55 6 94 31 112
73 18 42 18 336 1 342 -8 3 -13 -5 -13 -21 0 -32 -5 -32 -42 -1 -38 32 -108
34 -156 5z m152 -28 c10 -10 25 -31 32 -49 50 -118 -59 -227 -164 -163 -78 48
-72 182 10 224 38 19 93 13 122 -12z"/>
</g>
</svg>
